<svg xmlns="http://www.w3.org/2000/svg" height="1000" width="1000" version="1.1" xmlns:xlink="http://www.w3.org/1999/xlink" xmlns:svgjs="http://svgjs.com/svgjs"><rect fill="#f3ebe9" width="1000" height="1000"></rect><g><path d="M529.58 264.23L550.86 581.79 483.32 613.51 500.65 595.33 415.74 258.7C451.12 256.93 495.12 252.42 529.58 264.23Z" fill="#ff4f32" opacity="1" stroke-width="4" stroke="#000000"></path><path d="M548.85 273.88L580.03 579.47 501.26 662.81 452 595.33 460.05 256.52C516 255.49 514.4 262.08 548.85 273.88Z" fill="#ff4f3200" opacity="0" stroke-width="4" stroke="#ffffff00"></path><path d="M482.02 250L439.21 554.15 512.01 595.33 539.81 568.58 584.26 252.8 482.02 250Z" fill="#ff4f32" opacity="1" stroke-width="4" stroke="#000000"></path><path d="M500 750C602.68 750 685.92 666.76 685.92 564.08 685.92 461.4 602.68 378.16 500 378.16 397.32 378.16 314.08 461.4 314.08 564.08 314.08 666.76 397.32 750 500 750Z" fill="#ffc930" opacity="1" stroke-width="4" stroke="#000000"></path><path d="M393.91 411.6C458.04 367.59 541.96 366.57 605.75 411.25" stroke="#000000" stroke-width="4" stroke-linecap="round" stroke-linejoin="round" opacity="1" fill="none"></path><path d="M500 702.24C576.31 702.24 638.16 640.39 638.16 564.08 638.16 487.77 576.31 425.92 500 425.92 423.69 425.92 361.84 487.77 361.84 564.08 361.84 640.39 423.69 702.24 500 702.24Z" stroke="#000000" stroke-width="4" stroke-linecap="round" stroke-linejoin="round" opacity="1" fill="none"></path></g></svg>