<svg xmlns="http://www.w3.org/2000/svg" height="1200" width="1600" version="1.1" xmlns:xlink="http://www.w3.org/1999/xlink" xmlns:svgjs="http://svgjs.com/svgjs"><rect fill="#f3ebe9" width="1600" height="1200"></rect><g><path d="M1250.51 937.37L1291.13 1016.87 1292.72 915.64 1410.45 977.84 1321.12 842.17 1446.79 833.28 1354.91 793.93" stroke="#000000" stroke-width="4" stroke-linecap="round" stroke-linejoin="round" opacity="1" fill="none"></path></g><g><path d="M1203.35 363.41L1106.04 280.96 967.32 447.04 1203.35 363.41Z" fill="#ffffff" opacity="1" stroke-width="4" stroke="#000000"></path></g><g><path d="M1347.27 751.69L1263.89 798.22C1263.83 799.34 1261.5 839.08 1192.1 889.56 1121.67 940.68 965.55 1036.95 937.59 1007.3 910.57 978.68 952.94 948.99 971.53 936.89 989.1 925.45 1041.86 887.59 1047.84 883.27L1047.85 883.13C1037.35 888.06 893.64 955.77 862.78 968.92 827.33 984.09 806.32 977.81 798.87 961.57 790.18 942.31 809.46 924.92 826.82 914.86 843.31 905.32 975.38 831.96 988.1 824.89L988.1 824.75C973.76 830.75 816.27 896.21 775.68 910.41 733.23 925.21 717.4 905.45 713.97 895.72 710.54 886 710.39 866.91 735.45 851.91 756.74 839.11 924.6 765.76 939.53 759.23 939.67 759.24 939.54 759.09 939.54 759.09 925.41 763.56 781.33 808.51 749.44 814.45 715.86 820.73 698.81 797.39 705.82 775.57 713.52 751.54 765.83 733.32 794.81 721.05 823.8 708.78 945.67 653.43 958.46 647.63 971.25 641.83 986.25 628.7 971.75 615.74 957.26 602.79 905.64 577.54 889.95 538.69 874.12 499.84 908.4 496.4 915.36 497.6 935.12 501.01 1075.56 537.7 1096.88 540.76 1118.2 543.82 1140 548.45 1163.88 537.19 1187.19 526.17 1211.85 513.26 1213.16 512.49 1213.16 512.49 1213.16 512.49 1213.3 512.49L1347.27 751.69Z" fill="#ffc930" opacity="1" stroke-width="4" stroke="#000000"></path><path d="M1347.02 751.11L1213.28 512.91C1213.01 512.62 1212.59 512.6 1212.43 513.01 1210.55 522.18 1201.21 586.55 1244.6 657.28 1290.98 732.65 1338.69 749.28 1346.42 751.78 1346.83 751.95 1347.14 751.54 1347.02 751.11Z" fill="#a37901" opacity="1" stroke-width="4" stroke="#000000"></path><path d="M1347.02 751.11L1213.28 512.91C1213.01 512.62 1212.59 512.6 1212.43 513.01 1210.55 522.18 1201.21 586.55 1244.6 657.28 1290.98 732.65 1338.69 749.28 1346.42 751.78 1346.83 751.95 1347.14 751.54 1347.02 751.11Z" fill="#ffc93000" opacity="0" stroke-width="4" stroke="#ffffff00"></path><path d="M890.64 506.16C906.34 514.69 946.22 533.44 958.5 507.54 937.71 502.4 921.21 498.47 915.37 497.46 911.19 496.83 897.95 497.69 890.64 506.16Z" fill="#a37901" opacity="1" stroke-width="4" stroke="#000000"></path><path d="M971.39 936.89L1068.54 906.65 1048.28 882.87C1048.28 882.87 989.98 924.79 971.39 936.89Z" fill="#ffc93000" opacity="0" stroke-width="4" stroke="#ffffff00"></path><path d="M1005.84 848.4L988.96 824.37C988.96 824.37 889.99 879.36 845.77 904.04 869.17 896.54 1005.84 848.4 1005.84 848.4Z" fill="#ffc93000" opacity="0" stroke-width="4" stroke="#ffffff00"></path><path d="M961.32 786.04L940.54 758.72C940.54 758.72 824.81 809.2 766.13 836.64 808.18 826.87 961.32 786.04 961.32 786.04Z" fill="#ffc93000" opacity="0" stroke-width="4" stroke="#ffffff00"></path><path d="M1071.35 906.51C1026.36 869.67 979.51 822.62 936.55 748.97" stroke="#000000" stroke-width="4" stroke-linecap="round" opacity="1" fill="none"></path></g><g><path d="M317.8 613.59L168.74 503.79" stroke="#000000" stroke-width="4" stroke-linecap="round" stroke-linejoin="round" opacity="1" fill="none"></path><path d="M294.42 666.47L191.25 637.18" stroke="#000000" stroke-width="4" stroke-linecap="round" stroke-linejoin="round" opacity="1" fill="none"></path></g><g><path d="M927.89 363.59C958.18 293.01 925.53 211.24 854.95 180.94 784.38 150.65 702.6 183.3 672.31 253.88 642.01 324.45 674.66 406.22 745.24 436.52 815.82 466.82 897.59 434.17 927.89 363.59Z" fill="#7fb964" opacity="1" stroke-width="4" stroke="#000000"></path><path d="M769.48 230.61L778.97 254.36" stroke="#000000" stroke-width="4" stroke-linecap="round" stroke-linejoin="round" opacity="1" fill="none"></path><path d="M822.26 362.77L831.74 386.52" stroke="#000000" stroke-width="4" stroke-linecap="round" stroke-linejoin="round" opacity="1" fill="none"></path><path d="M803.76 245.05L768.96 258.94C755.41 264.35 748.78 279.8 754.19 293.35 758.53 304.23 769.54 310.89 781.18 309.93L817.84 306.54C829.98 305.37 841.35 312.47 845.83 323.68 851.44 337.73 844.61 353.65 830.55 359.26L793.25 374.16" stroke="#000000" stroke-width="4" stroke-linecap="round" stroke-linejoin="round" opacity="1" fill="none"></path></g><g><path d="M397.42 316.8L486.67 241.19 613.88 393.5 397.42 316.8Z" fill="#ffffff" opacity="1" stroke-width="4" stroke="#000000"></path></g><g><path d="M553.29 434.21L743.89 537.08C771.17 551.79 791.07 577.17 799.03 607.09L852.62 809.18C868.67 869.55 832.71 931.69 772.16 947.7L513.34 1016.48C452.85 1032.61 390.82 996.58 374.7 936.09L321.11 734C313.16 704.08 317.95 672.06 334.33 645.82L448.72 461.95C470.89 426.56 516.6 414.31 553.29 434.21Z" fill="#ffc930" opacity="1" stroke-width="4" stroke="#000000"></path><path d="M504.93 462.68C494.54 465.42 485.63 472.06 479.84 481.2L365.44 665.08C354.48 682.85 351.29 704.3 356.61 724.54L410.26 926.74C421.17 967.7 463.1 991.94 504.01 981.22L762.88 912.25C803.83 901.35 828.07 859.41 817.35 818.51L763.65 616.49C758.21 596.31 744.8 579.32 726.48 569.28L535.99 466.34C526.47 461.22 515.43 459.88 504.93 462.68ZM495.54 427.3C514.96 422.15 535.53 424.61 553.29 434.21L743.89 537.08C771.17 551.79 791.07 577.17 799.03 607.09L852.62 809.18C868.67 869.55 832.71 931.69 772.16 947.7L513.34 1016.48C452.85 1032.61 390.82 996.58 374.7 936.09L321.11 734C313.16 704.08 317.95 672.06 334.33 645.82L448.72 461.95C459.42 444.78 476.11 432.46 495.54 427.3Z" fill="#ff4f32" opacity="1" stroke-width="4" stroke="#000000"></path><path d="M446.91 697.16L715.88 625.7 784.02 882.22 515.05 953.67 446.91 697.16Z" fill="#ffc93000" opacity="0" stroke-width="4" stroke="#ffffff00"></path><path d="M419.07 682L688.04 610.55 756.18 867.06 487.21 938.51 419.07 682Z" fill="#f6f6f6" opacity="1" stroke-width="4" stroke="#000000"></path><path d="M599.25 817.67L797.65 601.75 852.67 809C868.72 869.37 832.76 931.51 772.21 947.52L513.5 1016.24C453.01 1032.36 390.99 996.33 374.93 935.96L319.92 728.71 599.25 817.67Z" fill="#ff4f32" opacity="1" stroke-width="4" stroke="#000000"></path><path d="M582.73 755.42L856.37 842.74C854.3 892.35 820.27 934.84 772.27 947.64L513.5 1016.24C465.51 1029.03 414.82 1009.04 388.43 967L582.73 755.42Z" fill="#ff4f32" opacity="1" stroke-width="4" stroke="#000000"></path><path d="M660.64 873.98L573.92 897.02C561.65 900.22 554.44 912.78 557.64 925.04 560.84 937.31 573.4 944.52 585.67 941.32L672.39 918.29C684.66 915.09 691.86 902.53 688.67 890.26 685.4 877.88 672.84 870.67 660.64 873.98Z" fill="#ffc930" opacity="1" stroke-width="4" stroke="#000000"></path><path d="M655.85 898.8L590.43 916.21" stroke="#000000" stroke-width="4" stroke-linecap="round" stroke-linejoin="round" opacity="1" fill="none"></path><path d="M856.95 843.48L641.04 773.19" stroke="#000000" stroke-width="4" stroke-linecap="round" stroke-linejoin="round" opacity="1" fill="none"></path><path d="M541.67 800.1L389.08 966.01" stroke="#000000" stroke-width="4" stroke-linecap="round" stroke-linejoin="round" opacity="1" fill="none"></path><path d="M767.62 628.77L793.86 601.01" stroke="#000000" stroke-width="4" stroke-linecap="round" stroke-linejoin="round" opacity="1" fill="none"></path><path d="M359.66 738.43L322.31 727.8" stroke="#000000" stroke-width="4" stroke-linecap="round" stroke-linejoin="round" opacity="1" fill="none"></path></g></svg>