<svg xmlns="http://www.w3.org/2000/svg" height="1200" width="1600" version="1.1" xmlns:xlink="http://www.w3.org/1999/xlink" xmlns:svgjs="http://svgjs.com/svgjs"><rect fill="#f3ebe9" width="1600" height="1200"></rect><g><path d="M1393.87 448.78C1347.19 309.38 1249.5 215.68 1125.81 181.41 998.51 146.16 866.69 148.59 737.54 166.82 616.41 183.96 479.35 198.79 370.77 268.67 286.35 323.12 212.73 416.57 190.82 529.72 166.35 656.48 201.93 790.77 265.27 894.08 297.45 946.46 335.81 993.13 384.85 1023.14 431.95 1052.07 482.74 1067.26 535.59 1070.79 589.99 1074.31 645.62 1062.52 696.41 1040.04 746.9 1017.55 794.3 987.9 843.55 962.62 870.6 949.74 898.36 938.92 927.15 933.09 945.86 931.02 964.47 931.39 983.19 933.82 1043.55 945.12 1102.57 969.55 1164.26 968.33 1239.32 966.87 1301.33 927.25 1345.95 857.13 1417.52 744.23 1437.77 579.67 1393.87 448.78Z" fill="#efdcd7" opacity="1" stroke-width="4" stroke="#000000"></path></g><g><path d="M995.71 272.72C883.16 275.55 794.43 368.82 796.98 481.09 798.39 542.33 827.59 599.88 876.07 637.3 907.54 661.39 925.97 698.53 926.25 737.94L937.02 760.62H1057.23L1075.09 737.94C1075.09 698.82 1093.23 661.68 1124.42 637.86 1213.72 569.54 1231.01 441.97 1162.69 352.38 1123 300.79 1060.91 271.02 995.71 272.72Z" fill="#ffc930" opacity="1" stroke-width="4" stroke="#000000"></path><path d="M926.25 738.22V790.1C926.25 831.21 959.42 864.38 1000.53 864.38 1041.64 864.38 1074.8 831.21 1074.8 790.1V738.22H926.25Z" fill="#ffffff" opacity="1" stroke-width="4" stroke="#000000"></path><path d="M926.25 737.94H1075.09" stroke="#000000" stroke-width="4" stroke-linecap="round" stroke-linejoin="round" opacity="1" fill="none"></path><path d="M926.25 779.05H1074.8" stroke="#000000" stroke-width="4" stroke-linecap="round" stroke-linejoin="round" opacity="1" fill="none"></path><path d="M975.58 737.94V678.69C975.58 639 959.99 600.73 931.92 572.66 910.66 551.4 899.04 522.76 899.04 492.71 899.04 471.45 916.33 454.44 937.31 454.44 958.57 454.44 975.58 471.73 975.58 492.71V514.83C975.58 528.43 986.64 539.49 1000.24 539.49 1013.85 539.49 1024.91 528.43 1024.91 514.83V492.71C1024.91 471.45 1042.2 454.44 1063.18 454.44H1063.75C1085.01 454.44 1102.02 471.73 1102.02 492.71 1102.02 522.76 1090.11 551.68 1068.85 572.94 1040.78 601.29 1024.91 639.28 1024.91 679.25L1025.19 738.22" stroke="#000000" stroke-width="4" stroke-linecap="round" stroke-linejoin="round" opacity="1" fill="none"></path></g><g><path d="M1350.77 464.61C1391.25 424.13 1391.25 358.51 1350.77 318.03 1310.29 277.56 1244.67 277.56 1204.2 318.03 1163.72 358.51 1163.72 424.13 1204.2 464.61 1244.67 505.08 1310.29 505.08 1350.77 464.61Z" fill="#7fb964" opacity="1" stroke-width="4" stroke="#000000"></path><path d="M1277.89 328.79V347.85" stroke="#000000" stroke-width="4" stroke-linecap="round" stroke-linejoin="round" opacity="1" fill="none"></path><path d="M1277.89 434.84V453.91" stroke="#000000" stroke-width="4" stroke-linecap="round" stroke-linejoin="round" opacity="1" fill="none"></path><path d="M1297.62 348.25H1269.7C1258.82 348.25 1249.96 357.11 1249.96 367.99 1249.96 376.72 1255.74 384.37 1264.06 386.92L1290.37 394.7C1299.1 397.26 1305 405.31 1305 414.3 1305 425.58 1295.88 434.71 1284.6 434.71H1254.66" stroke="#000000" stroke-width="4" stroke-linecap="round" stroke-linejoin="round" opacity="1" fill="none"></path></g><g><path d="M716.93 222.04C718.17 232.19 716.17 250.72 697.67 257.01 679.32 263.18 670.08 260.14 654.65 273.45 641.21 284.95 642.08 308.7 642.08 308.7L686.92 319.82C686.92 319.82 687.35 303.03 697.22 294.89 714.75 280.49 735.87 288.99 752.06 269.33 764.35 254.38 761.99 234.03 761.99 234.03L716.93 222.04Z" fill="#7fb964" opacity="1" stroke-width="4" stroke="#000000"></path></g><g><path d="M1176.11 940.26C1166.33 944.37 1147.29 947.62 1135.78 930.96 1124.43 914.41 1124.84 904.33 1107.19 892.72 1091.92 882.58 1068.49 890.18 1068.49 890.18L1070.1 938.04C1070.1 938.04 1086.97 933.71 1097.88 941.25 1117.2 954.64 1114.71 978.11 1138.91 988.68 1157.3 996.7 1176.91 988.58 1176.91 988.58L1176.11 940.26Z" fill="#7fb964" opacity="1" stroke-width="4" stroke="#000000"></path></g><g><path d="M503.65 573.46L505.24 536.66C505.24 536.5 505.4 536.5 505.4 536.5 508.43 537.13 550.65 546.38 568.5 520.09 581.4 500.81 575.98 490.13 574.39 429.11 574.07 418.11 574.87 403.29 572.64 388.95 568.66 363.62 554.16 347.85 513.53 337.33 426.85 314.86 401.67 371.11 393.07 422.41 392.11 427.67 384.78 447.59 384.63 452.69 384.31 474.52 383.99 493.48 383.83 510.84 383.67 527.73 383.51 542.55 383.51 554.18 383.51 572.51 383.51 583.02 383.51 583.02L463.65 623.01 484.53 621.42 503.65 573.46Z" fill="#ad7171" opacity="1" stroke-width="4" stroke="#000000"></path><path d="M475.6 519.93L504.13 570.91 504.44 554.18 505.24 536.66C505.24 536.66 505.24 536.5 505.08 536.5 503.65 536.18 488.19 532.35 475.92 519.77 475.76 519.45 475.45 519.77 475.6 519.93Z" fill="#ad717100" opacity="0" stroke-width="4" stroke="#ffffff00"></path><path d="M383.35 571.23L383.83 631.62H504.44L504.13 571.39 504.44 554.02H383.51C383.35 576.65 383.35 571.23 383.35 571.23Z" fill="#62271e" opacity="1" stroke-width="4" stroke="#000000"></path><path d="M505.24 335.42C414.42 331.43 399.12 353.58 390.04 433.25 389.88 438.51 384.78 447.59 384.63 452.69 384.31 474.04 384.15 493.8 383.83 510.84 416.49 505.59 432.74 486.94 436.89 481.85 437.52 481.05 437.36 479.93 436.73 479.3 429.88 471.65 420.48 460.49 418.56 446.79 413.94 406.48 441.67 388.16 469.71 426.72 479.27 438.51 482.93 443.92 485.64 447.59 485.96 448.07 486.76 448.23 487.24 447.91 492.18 444.4 509.22 428.79 514.64 392.78 521.81 366.01 540.61 363.14 545.39 362.82 546.35 362.66 547.15 363.94 545.07 360.27 537.43 347.21 529.14 341.47 505.24 335.42Z" fill="#0b0c0c" opacity="1" stroke-width="4" stroke="#000000"></path><path d="M524.36 448.23C527.08 448.23 529.3 446.01 529.3 443.29 529.3 440.55 527.08 438.35 524.36 438.35 521.64 438.35 519.42 440.55 519.42 443.29 519.42 446.01 521.64 448.23 524.36 448.23Z" fill="#0b0c0c" opacity="1" stroke-width="4" stroke="#000000"></path><path d="M562.28 444.88C565.01 444.88 567.22 442.67 567.22 439.94 567.22 437.22 565.01 435 562.28 435 559.56 435 557.34 437.22 557.34 439.94 557.34 442.67 559.56 444.88 562.28 444.88Z" fill="#0b0c0c" opacity="1" stroke-width="4" stroke="#000000"></path><path d="M513.37 332.87C506.99 331.28 503.01 325.22 497.11 324.26 422.71 312.47 384.94 357.57 384.94 437.23 384.78 442.49 384.78 447.43 384.63 452.53 384.63 452.69 384.78 452.69 384.78 452.69L418.09 441.37C418.09 441.37 418.56 421.14 436.25 414.77 442.94 412.38 449.16 413.17 454.25 415.08 456.48 415.88 459.51 415.88 461.26 417 466.04 420.02 468.91 421.78 468.91 421.78L562.44 384.49C558.3 359.48 553.68 343.07 513.37 332.87Z" fill="#ffffff" opacity="1" stroke-width="4" stroke="#000000"></path><path d="M515.12 328.09C509.06 326.5 503.01 325.22 497.11 324.26 485.8 335.42 476.56 348.8 470.19 363.46 463.18 380.03 457.92 397.4 454.25 415.08 459.51 417.16 463.97 420.34 467.96 424.49L572.48 388.95 572.64 388.79C568.18 363.78 555.27 338.45 515.12 328.09Z" fill="#a7a7a7" opacity="1" stroke-width="4" stroke="#000000"></path><path d="M754.76 706.17C720.02 745.21 687.52 786.16 679.07 796.99 678.12 798.27 676.21 797.95 675.57 796.51 655.01 742.18 630.64 666.5 606.26 633.04 561.01 570.9 506.83 571.07 504.28 571.07 504.28 571.07 504.13 571.06 504.13 571.22L488.51 609.31C488.35 609.63 488.03 609.63 487.87 609.31L463.81 561.51C463.65 561.19 463.34 561.35 463.18 561.51L443.58 609.61C443.58 609.77 443.26 609.93 443.1 609.77L383.35 571.37 345.11 571.07C339.85 570.91 334.91 570.9 334.91 570.9 300.82 570.9 255.88 600.37 259.07 657.73 261.14 688.48 267.04 719.55 276.12 749.35 272.14 784.08 263.37 795.72 263.21 829.02 263.21 853.87 285.04 866.78 285.04 866.78L296.04 890.2 365.35 894.66C389.09 910.75 417.45 919.68 447.24 919.68L566.11 919.53 609.6 880.8C610.24 881.12 638.28 880.48 638.92 880.8L737.39 916.97C742.17 918.72 747.59 918.08 751.73 915.06 795.07 883.67 822.63 835.39 850.04 782.65L807.18 735.65 754.76 706.17Z" fill="#ff4f32" opacity="1" stroke-width="4" stroke="#000000"></path><path d="M984.99 634.49C989.14 611.86 914.41 632.73 908.35 634.49 908.19 634.49 908.19 634.33 908.19 634.17 934.64 592.9 842.07 626.68 814.98 645.64 800.96 655.52 778.02 679.74 754.92 705.87V706.03L849.72 782.35C849.72 782.35 849.88 782.35 850.04 782.35 851.63 779.32 853.22 776.45 854.66 773.27 861.51 759.88 867.88 746.5 874.42 734.07 874.42 734.07 874.42 734.07 874.58 733.91 877.6 733.27 983.56 712.88 988.5 700.13 992.32 690.25 973.2 687.86 969.7 687.39 969.54 687.39 969.54 687.23 969.7 687.07 982.44 680.69 1004.27 669.54 993.28 655.36V655.2C999.65 651.85 1004.27 636.08 985.31 634.33 984.99 634.65 984.99 634.65 984.99 634.49Z" fill="#ad7171" opacity="1" stroke-width="4" stroke="#000000"></path><path d="M466.84 660.14C473.88 660.14 479.59 654.42 479.59 647.39 479.59 640.35 473.88 634.65 466.84 634.65 459.8 634.65 454.09 640.35 454.09 647.39 454.09 654.42 459.8 660.14 466.84 660.14Z" fill="#060505" opacity="1" stroke-width="4" stroke="#000000"></path><path d="M285.04 866.64H334.44L365.98 895H286L285.04 866.64Z" fill="#f4dbd7" opacity="1" stroke-width="4" stroke="#000000"></path><path d="M449.16 448.39L460.31 461.13" stroke="#000000" stroke-width="4" stroke-linecap="round" stroke-linejoin="round" opacity="1" fill="none"></path><path d="M548.74 451.41L550.65 457.79C551.45 460.65 550.97 463.68 549.22 466.07L547.94 467.82" stroke="#000000" stroke-width="4" stroke-linecap="round" stroke-linejoin="round" opacity="1" fill="none"></path><path d="M534.88 481.69C537.74 488.86 544.12 488.22 548.26 487.58" stroke="#000000" stroke-width="4" stroke-linecap="round" stroke-linejoin="round" opacity="1" fill="none"></path><path d="M505.4 536.5C493.13 532.67 487.08 530.6 475.92 519.61" stroke="#000000" stroke-width="4" stroke-linecap="round" stroke-linejoin="round" opacity="1" fill="none"></path><path d="M908.19 634.33C895.45 637.51 873.3 642.45 873.3 642.45" stroke="#000000" stroke-width="4" stroke-linecap="round" stroke-linejoin="round" opacity="1" fill="none"></path><path d="M984.99 634.65C975.11 636.56 906.76 653.77 906.76 653.77" stroke="#000000" stroke-width="4" stroke-linecap="round" stroke-linejoin="round" opacity="1" fill="none"></path><path d="M993.12 655.84L915.84 676.71" stroke="#000000" stroke-width="4" stroke-linecap="round" stroke-linejoin="round" opacity="1" fill="none"></path><path d="M969.54 687.7L923.97 698.22" stroke="#000000" stroke-width="4" stroke-linecap="round" stroke-linejoin="round" opacity="1" fill="none"></path><path d="M471.46 423.37L614.38 374.61" stroke="#000000" stroke-width="4" stroke-linecap="round" stroke-linejoin="round" opacity="1" fill="none"></path><path d="M750.77 898.82C760.65 882.25 726.4 863.93 698.67 852.77 698.51 852.77 698.51 852.61 698.67 852.45 700.42 850.54 702.34 847.36 701.38 843.37 700.11 838.91 690.86 829.19 664.26 825.05 649.6 822.18 620.92 818.68 580.45 814.69 580.29 814.69 580.29 814.69 580.29 814.85L565.95 919.22C565.95 919.37 565.95 919.37 566.11 919.37L753.96 919.69C757.15 919.69 761.93 908.54 750.93 898.98 750.77 898.98 750.77 898.98 750.77 898.82Z" fill="#ad7171" opacity="1" stroke-width="4" stroke="#000000"></path><path d="M285.68 776.77C289.03 838.59 305.28 866.64 305.28 866.64H333.96C334.12 866.64 334.28 866.48 334.12 866.32 329.81 861.38 328.54 858.99 324.72 853.09 310.22 830.47 296.83 804.5 286 776.61 285.84 776.45 285.68 776.61 285.68 776.77Z" fill="#ff4f3200" opacity="0" stroke-width="4" stroke="#ffffff00"></path><path d="M559.25 812.62C559.25 812.62 562.12 783.78 562.92 776.45 562.92 775.97 562.6 775.66 562.12 775.66 541.09 777.25 498.39 781.87 481.02 764.18L454.73 737.73C448.2 731.2 435.45 725.15 429.56 726.9 429.24 727.06 428.92 727.54 429.24 727.86L463.97 804.5C463.97 804.34 559.25 812.62 559.25 812.62Z" fill="#ff4f3200" opacity="0" stroke-width="4" stroke="#ffffff00"></path><path d="M428.92 727.06L463.81 804.34" stroke="#000000" stroke-width="4" stroke-linecap="round" stroke-linejoin="round" opacity="1" fill="none"></path><path d="M580.45 814.85L463.81 804.34" stroke="#000000" stroke-width="4" stroke-linecap="round" stroke-linejoin="round" opacity="1" fill="none"></path><path d="M276.12 749.21C289.18 790.31 309.1 831.74 334.44 866.64" stroke="#000000" stroke-width="4" stroke-linecap="round" stroke-linejoin="round" opacity="1" fill="none"></path><path d="M750.61 899.14C750.61 899.14 702.5 876.83 676.68 867.11" stroke="#000000" stroke-width="4" stroke-linecap="round" stroke-linejoin="round" opacity="1" fill="none"></path><path d="M667.12 892.61L730.7 919.85" stroke="#000000" stroke-width="4" stroke-linecap="round" stroke-linejoin="round" opacity="1" fill="none"></path><path d="M659.16 913.48L673.18 918.74" stroke="#000000" stroke-width="4" stroke-linecap="round" stroke-linejoin="round" opacity="1" fill="none"></path><path d="M559.25 811.51L569.29 717.82" stroke="#000000" stroke-width="4" stroke-linecap="round" stroke-linejoin="round" opacity="1" fill="none"></path></g></svg>