<svg xmlns="http://www.w3.org/2000/svg" height="1000" width="1000" version="1.1" xmlns:xlink="http://www.w3.org/1999/xlink" xmlns:svgjs="http://svgjs.com/svgjs"><rect fill="#effaff" width="1000" height="1000"></rect><g><path d="M588.17 293.37H412.41V368.9H588.17V293.37Z" fill="#e2ce12" stroke="#555353" stroke-width="2" stroke-linecap="round" stroke-linejoin="round" opacity="1"></path><path d="M500 583.14C429.93 583.14 373.06 526.28 373.06 456.2V329.26H626.94V456.2C627.23 526.28 570.36 583.14 500 583.14Z" fill="#e2ce12" stroke="#555353" stroke-width="2" stroke-linecap="round" stroke-linejoin="round" opacity="1"></path><path d="M500 634.26V713.53" stroke="#555353" stroke-width="2" stroke-linecap="round" stroke-linejoin="round" opacity="1" fill="none"></path><path d="M500 583.14V611" stroke="#555353" stroke-width="2" stroke-linecap="round" stroke-linejoin="round" opacity="1" fill="none"></path><path d="M570.94 750H429.35V737.65C429.35 724.44 440.26 713.53 453.48 713.53H546.81C560.02 713.53 570.94 724.44 570.94 737.65V750Z" fill="#e2ce12" stroke="#555353" stroke-width="2" stroke-linecap="round" stroke-linejoin="round" opacity="1"></path><path d="M500 293.37V250" stroke="#555353" stroke-width="2" stroke-linecap="round" stroke-linejoin="round" opacity="1" fill="none"></path><path d="M341.47 456.2H373.06V329.26H279.44V394.17C279.44 428.35 307.29 456.2 341.47 456.2Z" stroke="#555353" stroke-width="2" stroke-linecap="round" stroke-linejoin="round" opacity="1" fill="none"></path><path d="M720.56 379.52V394.17C720.56 428.35 692.71 456.2 658.53 456.2H626.94V329.26H720.56V358.56" stroke="#555353" stroke-width="2" stroke-linecap="round" stroke-linejoin="round" opacity="1" fill="none"></path></g></svg>