<svg xmlns="http://www.w3.org/2000/svg" height="1200" width="1600" version="1.1" xmlns:xlink="http://www.w3.org/1999/xlink" xmlns:svgjs="http://svgjs.com/svgjs"><rect fill="#f3ebe9" width="1600" height="1200"></rect><g><path d="M570.1 672.6V763.5C570.1 776.5 559.6 787 546.6 787H531.3C518.3 787 507.8 797.5 507.8 810.5V846.1C507.8 859.1 518.3 869.6 531.3 869.6H900.7C913.7 869.6 924.2 880.1 924.2 893.1V922.8C924.2 935.8 934.7 946.3 947.7 946.3H966.5C979.5 946.3 990 935.8 990 922.8V857.5C990 844.5 1000.5 834 1013.5 834H1316.5C1329.5 834 1340 823.5 1340 810.5V703.9" stroke="#000000" stroke-width="4" stroke-linecap="round" stroke-linejoin="round" opacity="1" fill="none"></path></g><g><path d="M357.7 243H355.29L336.26 258.03 314.06 243H292.75C284.61 243 278 249.61 278 257.75V340.63C278 348.77 284.61 355.39 292.75 355.39H303.71L336.33 334.77 365.57 355.39H375.63C383.77 355.39 390.39 348.77 390.39 340.63V275.68C390.39 272.58 389.15 269.61 386.94 267.4L365.98 246.44C363.77 244.24 360.81 243 357.7 243Z" fill="#ffa0dc" opacity="1" stroke-width="4" stroke="#000000"></path><path d="M307.85 305.88H361.5C363.77 305.88 365.57 307.74 365.57 309.95V355.39H303.71V310.02C303.78 307.74 305.58 305.88 307.85 305.88Z" fill="#3c2c5b" opacity="1" stroke-width="4" stroke="#000000"></path><path d="M314.06 243H355.29V271.34C355.29 273.33 353.71 274.92 351.71 274.92H317.64C315.64 274.92 314.06 273.33 314.06 271.34V243Z" fill="#3c2c5b" opacity="1" stroke-width="4" stroke="#000000"></path></g><g><path d="M707.21 418.08L645.1 398.65V367.99H624.06L515.35 464.97 624.06 574.38H645.1V543.72L707.21 524.29V418.08Z" fill="#3c2c5b" opacity="1" stroke-width="4" stroke="#000000"></path><path d="M652.21 400.85L645.1 398.65V543.72L669.44 536.11 652.21 400.85Z" fill="#3c2c5b00" opacity="0" stroke-width="4" stroke="#ffffff00"></path><path d="M581.98 553.34H474.77V626.48H581.98V553.34Z" fill="#f3ebe9" opacity="1" stroke-width="4" stroke="#000000"></path><path d="M552.92 553.34H445.72V626.48H552.92V553.34Z" fill="#3c2c5b" opacity="1" stroke-width="4" stroke="#000000"></path><path d="M604.02 612.45H709.22V681.58H604.02L538.69 650.52 604.02 612.45Z" fill="#3c2c5b" opacity="1" stroke-width="4" stroke="#000000"></path><path d="M604.02 612.45H354.55V681.58H604.02V612.45Z" fill="#ff4f32" opacity="1" stroke-width="4" stroke="#000000"></path><path d="M624.06 367.99H374.58V574.38H624.06V367.99Z" fill="#ff4f32" opacity="1" stroke-width="4" stroke="#000000"></path><path d="M594 398.05H404.64V544.32H594V398.05Z" fill="#f3ebe9" opacity="1" stroke-width="4" stroke="#000000"></path><path d="M588.99 627.48H502.83V645.51H588.99V627.48Z" fill="#000000" opacity="1" stroke-width="4" stroke="#000000"></path><path d="M645.1 398.65V543.72" stroke="#000000" stroke-width="4" stroke-linecap="round" stroke-linejoin="round" opacity="1" fill="none"></path><path d="M431.69 427.1H499.82" stroke="#000000" stroke-width="4" stroke-linecap="round" stroke-linejoin="round" opacity="1" fill="none"></path><path d="M431.69 447.14H463.75" stroke="#000000" stroke-width="4" stroke-linecap="round" stroke-linejoin="round" opacity="1" fill="none"></path><path d="M431.69 477.2H481.79" stroke="#000000" stroke-width="4" stroke-linecap="round" stroke-linejoin="round" opacity="1" fill="none"></path></g><g><path d="M1415.57 248.64L1457.78 670.72C1461.03 703.28 1431.09 729.73 1390.7 729.84L781.22 731.43C740.98 731.53 705.76 705.25 702.51 672.69L660.3 250.61C657.04 218.05 686.99 191.6 727.23 191.5L1336.7 189.91C1376.94 189.8 1412.31 216.08 1415.57 248.64Z" fill="#ffffff" opacity="1" stroke-width="4" stroke="#000000"></path></g><g><path d="M1081.52 481.56L1079.5 467.18C1106.29 467.18 1117.99 454.62 1118.64 425.24 1118.95 410.42 1117.18 392.74 1115.26 374.04 1112.37 345.67 1109.38 316.33 1114.17 295.91 1118.22 278.7 1127.56 266.39 1141.23 260.35 1155.26 254.16 1172.97 254.98 1191.07 262.65L1187.02 275.78C1172.8 269.74 1159.18 269.02 1148.62 273.67 1138.51 278.13 1131.51 287.62 1128.36 300.99 1124.08 319.26 1126.95 347.44 1129.68 374.67 1131.54 392.98 1133.44 411.91 1133.12 427.63 1132.38 463.87 1115.46 481.56 1081.52 481.56Z" fill="#3c2c5b" opacity="1" stroke-width="4" stroke="#000000"></path><path d="M1093.01 465.83C1088.64 466.79 1084.1 467.22 1079.5 467.18L1081.52 481.56C1093.22 481.56 1102.89 479.45 1110.54 475.23 1110.54 475.23 1105.15 475.76 1099.95 472.88 1094.9 469.67 1093.01 465.83 1093.01 465.83Z" fill="#3c2c5b00" opacity="0" stroke-width="4" stroke="#ffffff00"></path><path d="M1087.42 500.63H1051.04L1056.95 449.39H1073.15C1077.95 449.39 1082.54 452.7 1084.25 457.35L1095.58 488.12C1097.6 493.64 1094.92 499.1 1089.59 500.35 1088.94 500.54 1088.19 500.63 1087.42 500.63Z" fill="#3c2c5b" opacity="1" stroke-width="4" stroke="#000000"></path><path d="M1048.68 605.65H1033.82L1036.73 626.27H1051.58L1048.68 605.65Z" fill="#3c2c5b" opacity="1" stroke-width="4" stroke="#000000"></path><path d="M1034.77 612.36L1050.3 617.16 1048.68 605.65H1033.82L1034.77 612.36Z" fill="#3c2c5b00" opacity="0" stroke-width="4" stroke="#ffffff00"></path><path d="M962.03 500.63H998.41L978.06 449.39H961.85C957.06 449.39 953.41 452.7 953.01 457.35L950.34 488.12C949.88 493.64 954.1 499.1 959.78 500.35 960.53 500.54 961.31 500.63 962.03 500.63Z" fill="#3c2c5b" opacity="1" stroke-width="4" stroke="#000000"></path><path d="M972.02 449.39H969.76L962.03 500.63H968.12L987.02 480.02 972.02 449.39Z" fill="#3c2c5b00" opacity="0" stroke-width="4" stroke="#ffffff00"></path><path d="M1001.85 320.93L1005.26 345.19" stroke="#000000" stroke-width="4" stroke-linecap="round" stroke-linejoin="round" opacity="1" fill="none"></path><path d="M1020.37 588.4H1057.27L1059 600.62C1059.65 605.27 1056.39 609.01 1051.79 609.01H1031.71C1027.06 609.01 1022.78 605.22 1022.14 600.62L1020.41 588.4H1020.37Z" fill="#3c2c5b" opacity="1" stroke-width="4" stroke="#000000"></path><path d="M1095.79 640.65H1087.6L1085.94 647.26 1080.41 640.65H1049.78L1046.19 648.51 1041.34 640.65H1012.44L1008.56 649.18 1001.6 640.65H996.57L995.51 633.12C994.53 626.17 999.39 620.51 1006.34 620.51H1080.4C1087.35 620.51 1093.8 626.17 1094.78 633.12L1095.79 640.65Z" fill="#ffa0dc" opacity="1" stroke-width="4" stroke="#000000"></path><path d="M1050.3 669.84C1058.9 669.84 1064.89 662.86 1063.68 654.26 1062.47 645.65 1054.51 638.68 1045.9 638.68 1037.3 638.68 1031.31 645.65 1032.52 654.26 1033.73 662.86 1041.69 669.84 1050.3 669.84Z" fill="#3c2c5b" opacity="1" stroke-width="4" stroke="#000000"></path><path d="M1011.47 669.84C1020.07 669.84 1026.07 662.86 1024.85 654.26 1023.64 645.65 1015.68 638.68 1007.08 638.68 998.48 638.68 992.48 645.65 993.7 654.26 994.91 662.86 1002.87 669.84 1011.47 669.84Z" fill="#3c2c5b" opacity="1" stroke-width="4" stroke="#000000"></path><path d="M1009.78 657.85C1011.77 657.85 1013.15 656.24 1012.87 654.26 1012.59 652.27 1010.75 650.66 1008.77 650.66 1006.78 650.66 1005.4 652.27 1005.68 654.26 1005.96 656.24 1007.79 657.85 1009.78 657.85Z" fill="#ffa0dc" opacity="1" stroke-width="4" stroke="#000000"></path><path d="M1048.61 657.85C1050.59 657.85 1051.97 656.24 1051.7 654.26 1051.42 652.27 1049.58 650.66 1047.59 650.66 1045.6 650.66 1044.23 652.27 1044.51 654.26 1044.78 656.24 1046.62 657.85 1048.61 657.85Z" fill="#ffa0dc" opacity="1" stroke-width="4" stroke="#000000"></path><path d="M1089.12 669.84C1097.72 669.84 1103.72 662.86 1102.5 654.26 1101.29 645.65 1093.33 638.68 1084.73 638.68 1076.13 638.68 1070.14 645.65 1071.35 654.26 1072.56 662.86 1080.52 669.84 1089.12 669.84Z" fill="#3c2c5b" opacity="1" stroke-width="4" stroke="#000000"></path><path d="M984.32 338.43H1024.3C1029.14 338.43 1033.63 342.36 1034.31 347.2L1036.77 364.65C1037.45 369.49 1034.07 373.42 1029.23 373.42H989.26C984.41 373.42 979.93 369.49 979.25 364.65L976.79 347.2C976.11 342.36 979.48 338.43 984.32 338.43Z" fill="#3c2c5b" opacity="1" stroke-width="4" stroke="#000000"></path><path d="M941.77 370.78H1073.1C1077.85 370.78 1082.28 374.67 1082.95 379.41 1083.61 384.16 1080.28 388.04 1075.53 388.04H944.2C939.45 388.04 935.02 384.16 934.35 379.41 933.68 374.67 936.97 370.78 941.77 370.78Z" fill="#3c2c5b" opacity="1" stroke-width="4" stroke="#000000"></path><path d="M1074.52 380.85H943.18C939.83 380.85 936.44 378.88 934.61 375.82 934.25 376.97 934.18 378.17 934.35 379.41 935.02 384.16 939.45 388.04 944.2 388.04H1075.53C1080.28 388.04 1083.61 384.16 1082.95 379.41 1082.77 378.17 1082.37 377.01 1081.68 375.86 1080.72 378.93 1077.88 380.85 1074.52 380.85Z" fill="#3c2c5b00" opacity="0" stroke-width="4" stroke="#ffffff00"></path><path d="M994.78 396.67H1028.82L1030.54 408.89C1031.19 413.54 1027.93 417.28 1023.33 417.28L1014.91 424.52 1006.12 417.28C1001.48 417.28 997.2 413.49 996.55 408.89L994.83 396.67H994.78Z" fill="#3c2c5b" opacity="1" stroke-width="4" stroke="#000000"></path><path d="M996.4 407.79L1030.52 408.75 1030.01 405.1H996.02L996.4 407.79Z" fill="#3c2c5b00" opacity="0" stroke-width="4" stroke="#ffffff00"></path><path d="M961.75 351.37H1048.65C1058.67 351.37 1067.97 359.52 1069.38 369.54L1071.83 386.94C1073.24 396.96 1066.24 405.1 1056.22 405.1H969.32C959.3 405.1 950.01 396.96 948.6 386.94L946.14 369.54C944.73 359.52 951.68 351.37 961.75 351.37Z" fill="#ffa0dc" opacity="1" stroke-width="4" stroke="#000000"></path><path d="M983.69 596.55H1095.57C1106.35 596.55 1113.9 587.82 1112.37 576.99 1112.14 575.36 1111.72 573.73 1111.06 572.15L1059.74 442.97C1056.32 434.34 1047.65 428.3 1038.74 428.3H1024.55L1017.14 423.37 1007.68 428.3H989.42C980.31 428.3 973.29 434.63 972.53 443.5L961.3 572.68C960.38 583.17 968.43 593.67 979.31 596.07 980.75 596.4 982.21 596.55 983.69 596.55Z" fill="#ffa0dc" opacity="1" stroke-width="4" stroke="#000000"></path><path d="M1003.2 417.28H1026.21C1029.28 417.28 1032.07 419.72 1032.5 422.79 1032.93 425.86 1030.83 428.3 1027.76 428.3H1004.75C1001.69 428.3 998.9 425.86 998.47 422.79 998.03 419.72 1000.13 417.28 1003.2 417.28Z" fill="#3c2c5b" opacity="1" stroke-width="4" stroke="#000000"></path><path d="M1045.59 456.15C1043.45 450.83 1038.13 447.09 1032.61 447.09H1002.18C996.57 447.09 992.23 450.98 991.76 456.49L987.54 505.14C986.99 511.42 991.8 517.7 998.33 519.14 999.22 519.33 1000.1 519.42 1000.96 519.42H1055.65C1062.12 519.42 1066.61 514.2 1065.7 507.73 1065.57 506.77 1065.28 505.76 1064.91 504.8L1045.59 456.15Z" fill="#3c2c5b" opacity="1" stroke-width="4" stroke="#000000"></path><path d="M1002.72 327.16C1006.17 327.16 1008.56 324.38 1008.08 320.93 1007.59 317.49 1004.41 314.7 1000.97 314.7 997.53 314.7 995.13 317.49 995.62 320.93 996.1 324.38 999.28 327.16 1002.72 327.16Z" fill="#3c2c5b" opacity="1" stroke-width="4" stroke="#000000"></path><path d="M975.3 380.85C979.53 380.85 982.48 377.42 981.89 373.18 981.29 368.94 977.37 365.51 973.14 365.51 968.9 365.51 965.95 368.94 966.55 373.18 967.15 377.42 971.06 380.85 975.3 380.85Z" fill="#ededed" opacity="1" stroke-width="4" stroke="#000000"></path><path d="M974.56 375.58C975.88 375.58 976.8 374.5 976.61 373.18 976.43 371.86 975.2 370.78 973.88 370.78 972.56 370.78 971.64 371.86 971.82 373.18 972.01 374.5 973.23 375.58 974.56 375.58Z" fill="#30242a" opacity="1" stroke-width="4" stroke="#000000"></path><path d="M1051.5 376.74C1052.94 372.98 1050.84 368.35 1046.81 366.38 1042.78 364.42 1038.35 365.87 1036.92 369.62 1035.48 373.37 1037.58 378.01 1041.61 379.97 1045.64 381.94 1050.07 380.49 1051.5 376.74Z" fill="#ededed" opacity="1" stroke-width="4" stroke="#000000"></path><path d="M938.95 525.32C928.01 523.55 917.72 521.92 907.72 517.99 898.59 514.44 892.47 507.06 892.49 499.67 892.5 490.23 902.2 483.23 917.91 481.41 928.94 480.12 940.14 479.64 951.12 479.85L951.78 472.41 952.36 465.66C940.19 465.36 929.6 465.4 914.27 467.18 902.76 468.52 893.67 472.02 887.31 477.58 881.21 482.95 877.98 489.9 877.97 497.71 877.98 511.71 888.51 525.18 904.14 531.31 915.75 535.86 927.43 537.73 938.66 539.55 957.29 542.53 974.86 545.4 992.26 559.69L1000.55 549.14C979.56 531.84 958.91 528.53 938.95 525.32Z" fill="#3c2c5b" opacity="1" stroke-width="4" stroke="#000000"></path><path d="M1031.2 447.25L1041.32 519.38" stroke="#000000" stroke-width="4" stroke-linecap="round" stroke-linejoin="round" opacity="1" fill="none"></path><path d="M1003.88 447.24L1013.99 519.38" stroke="#000000" stroke-width="4" stroke-linecap="round" stroke-linejoin="round" opacity="1" fill="none"></path><path d="M1061.58 496.82L988.5 496.72" stroke="#000000" stroke-width="4" stroke-linecap="round" stroke-linejoin="round" opacity="1" fill="none"></path><path d="M1050.77 469.51L991.14 469.48" stroke="#000000" stroke-width="4" stroke-linecap="round" stroke-linejoin="round" opacity="1" fill="none"></path><path d="M1187.62 251.43L1176.12 285.46C1176.12 285.46 1189.96 291.5 1200.06 295.53 1209.71 299.36 1213.72 292.08 1212.07 288.2 1212.07 288.2 1220.59 287.48 1216.83 277.46 1216.83 277.46 1222.65 274.2 1218.08 267.25 1213.5 260.3 1187.62 251.43 1187.62 251.43Z" fill="#3c2c5b" opacity="1" stroke-width="4" stroke="#000000"></path><path d="M1006.12 417.28H1023.76" stroke="#000000" stroke-width="4" stroke-linecap="round" stroke-linejoin="round" opacity="1" fill="none"></path><path d="M1000.24 374.14H1017.01" stroke="#000000" stroke-width="4" stroke-linecap="round" stroke-linejoin="round" opacity="1" fill="none"></path><path d="M994.2 382.34C999.66 390.82 1010.45 394.22 1018.29 390 1021.36 388.33 1023.67 385.64 1024.88 382.34" stroke="#000000" stroke-width="4" stroke-linecap="round" stroke-linejoin="round" opacity="1" fill="none"></path><path d="M1046.49 374.29C1046.94 373.12 1046.28 371.67 1045.02 371.06 1043.77 370.44 1042.38 370.89 1041.93 372.07 1041.48 373.24 1042.14 374.69 1043.4 375.3 1044.66 375.92 1046.04 375.46 1046.49 374.29Z" fill="#30242a" opacity="1" stroke-width="4" stroke="#000000"></path><path d="M1034.29 609.01H1049.15" stroke="#000000" stroke-width="4" stroke-linecap="round" stroke-linejoin="round" opacity="1" fill="none"></path><path d="M1035.92 620.51H1050.77" stroke="#000000" stroke-width="4" stroke-linecap="round" stroke-linejoin="round" opacity="1" fill="none"></path><path d="M1212.07 288.2L1196.6 281.15" stroke="#000000" stroke-width="4" stroke-linecap="round" stroke-linejoin="round" opacity="1" fill="none"></path><path d="M1216.83 277.46L1200.8 270.12" stroke="#000000" stroke-width="4" stroke-linecap="round" stroke-linejoin="round" opacity="1" fill="none"></path><path d="M1001.64 536.49L974.86 559.35C974.86 559.35 985.27 570.66 993.05 578.57 1000.49 586.15 1007.66 581.93 1007.92 578 1007.92 578 1016.39 581.3 1017.47 571.29 1017.47 571.29 1024.51 571.24 1023.41 563.43 1022.31 555.61 1001.64 536.49 1001.64 536.49Z" fill="#3c2c5b" opacity="1" stroke-width="4" stroke="#000000"></path><path d="M1007.92 577.95L996.42 565.1" stroke="#000000" stroke-width="4" stroke-linecap="round" stroke-linejoin="round" opacity="1" fill="none"></path><path d="M1017.43 571.29L1005.52 557.91" stroke="#000000" stroke-width="4" stroke-linecap="round" stroke-linejoin="round" opacity="1" fill="none"></path><path d="M952.26 465.69L951.02 480.02" stroke="#000000" stroke-width="4" stroke-linecap="round" stroke-linejoin="round" opacity="1" fill="none"></path><path d="M1087.73 466.75L1092.87 480.79" stroke="#000000" stroke-width="4" stroke-linecap="round" stroke-linejoin="round" opacity="1" fill="none"></path><path d="M1087.43 657.85C1089.42 657.85 1090.8 656.24 1090.52 654.26 1090.24 652.27 1088.4 650.66 1086.42 650.66 1084.43 650.66 1083.05 652.27 1083.33 654.26 1083.61 656.24 1085.44 657.85 1087.43 657.85Z" fill="#ffa0dc" opacity="1" stroke-width="4" stroke="#000000"></path></g><g><path d="M1217.65 429.93L1219.84 429.07 1220.41 428.69C1220.89 426.5 1221.27 424.5 1221.46 422.02 1222.89 408.22 1220.98 392.22 1222.12 385.37L1222.7 381.37C1225.17 368.42 1225.27 350.23 1211.27 337.57 1202.42 329.67 1200.61 333.95 1187.37 333.95 1180.42 333.95 1182.23 333.19 1175.76 335.76 1167.19 339 1152.33 332.33 1148.24 339.28 1144.34 345.85 1141.48 354.61 1138.24 364.42L1137.77 366.13C1132.53 366.9 1129.58 368.32 1129.1 370.32 1128.25 373.66 1132.34 378.99 1133.01 379.94 1133.01 380.03 1133.01 380.03 1133.01 380.13 1127.48 397.36 1127.67 406.88 1133.58 415.17 1137.29 420.31 1144.72 423.26 1153.57 423.26 1156.71 423.26 1159.86 422.78 1162.9 421.93 1163 421.93 1163.19 422.02 1163.19 422.12L1162.24 428.69C1162.24 428.69 1162.43 428.97 1162.43 429.07V429.83C1162.43 429.93 1162.52 429.93 1162.62 429.93L1215.46 430.02 1217.65 429.93Z" fill="#ea774d" opacity="1" stroke-width="4" stroke="#000000"></path><path d="M1179.56 421.64C1180.04 420.88 1179.85 419.93 1179.56 418.98 1178.8 416.41 1175.09 416.31 1174.8 416.41L1163.47 421.83H1163.28L1162.24 428.69 1162.71 429.54 1174.61 430.02 1179.56 421.64Z" fill="#ea774d00" opacity="0" stroke-width="4" stroke="#ffffff00"></path><path d="M1051.98 469.15L1046.84 462.3C1046.84 462.3 1041.98 456.58 1020.85 439.92 1007.14 428.88 983.34 417.07 966.39 417.07 965.15 417.07 963.82 417.17 962.58 417.26 958.77 417.74 956.2 418.98 954.68 421.36 951.63 421.83 949.25 423.17 948.3 425.07 947.35 426.78 947.44 429.07 948.58 431.35 948.01 432.02 945.06 435.45 948.2 440.4 951.25 445.06 969.15 455.06 969.34 455.16 966.58 454.78 963.82 454.58 961.06 454.58 954.3 454.58 949.15 455.92 947.25 458.11 946.49 458.96 946.39 460.2 946.96 461.25 948.39 464.2 958.58 467.82 979.72 472.87 987.33 486.29 1001.14 493.81 1002.19 494.29L1004.47 498 1012.95 509.05 1051.98 469.15Z" fill="#ea774d" opacity="1" stroke-width="4" stroke="#000000"></path><path d="M1221.55 421.93C1221.55 421.93 1227.46 389.17 1228.41 383.37L1228.5 382.7C1230.98 369.75 1235.55 345.66 1221.55 333 1212.7 325.1 1199.94 320.53 1186.61 320.53 1179.47 320.53 1172.52 321.86 1166.14 324.34 1158.62 327 1152.33 332.33 1148.29 339.17 1148.07 339.72 1150.33 347.85 1159.95 347.85 1161.19 347.85 1162.43 347.66 1162.36 348.4 1162.81 349.09 1159.95 354.99 1162.05 358.71 1163.19 360.61 1165.38 361.56 1168.71 361.56 1170.52 361.56 1172.33 361.37 1172.15 361.5 1169.47 375.46 1178.42 383.08 1180.23 384.41L1180.52 384.7 1180.71 384.51C1180.8 384.41 1190.99 374.99 1199.94 374.99H1200.23C1203.65 374.99 1206.8 376.8 1208.79 379.75 1216.7 391.17 1197.18 411.17 1197.18 411.17 1203.94 421.74 1220.98 422.02 1221.08 422.02L1221.55 421.93Z" fill="#231f20" opacity="1" stroke-width="4" stroke="#000000"></path><path d="M1258.68 621.3C1278.3 611.02 1295.63 584.45 1290.77 553.6 1288.3 537.51 1282.11 516.19 1273.63 495.05 1265.92 475.53 1257.73 459.73 1252.21 453.73 1239.64 439.92 1221.46 436.78 1219.36 436.49 1219.65 435.16 1220.41 428.69 1220.41 428.69H1162.24L1160.05 439.92C1159.95 439.92 1159.86 439.92 1159.76 439.92H1159.19C1158.9 439.92 1158.52 439.92 1158.14 439.92 1143.58 439.92 1113.58 447.16 1076.83 495.24 1075.31 493.43 1062.26 478.48 1046.94 462.39L1046.84 462.3 1004.47 498C1016.56 522.57 1041.98 564.17 1075.98 566.17 1076.64 566.17 1077.31 566.27 1077.97 566.27 1090.26 566.27 1104.16 559.79 1113.58 554.27 1119.68 550.75 1125.48 546.84 1131.1 542.56L1142.53 594.74 1142.91 595.69 1234.79 595.69C1235.64 596.26 1247.55 604.83 1258.49 621.2L1258.68 621.3Z" fill="#ffc930" opacity="1" stroke-width="4" stroke="#000000"></path><path d="M1258.68 621.3C1265.73 617.68 1271.82 612.35 1276.68 606.16L1276.39 605.87C1267.73 598.92 1261.83 589.12 1259.64 578.17 1258.21 570.46 1257.26 562.65 1256.69 554.84 1255.54 541.23 1254.69 531.42 1248.02 531.42L1244.21 531.61 1233.83 594.45 1233.55 594.64C1243.17 602.07 1251.54 611.11 1258.21 621.2L1258.3 621.3H1258.68Z" fill="#ffc93000" opacity="0" stroke-width="4" stroke="#ffffff00"></path><path d="M1242.12 931.31V930.54C1241.93 914.26 1240.59 898.08 1238.12 881.99 1236.5 871.32 1234.22 861.23 1231.36 849.14L1230.98 847.42C1227.36 832.1 1223.65 816.2 1222.03 797.44 1220.89 784.68 1221.55 771.35 1224.03 754.31 1233.55 775.06 1244.4 795.25 1256.5 814.58 1264.3 826.95 1273.92 840.47 1284.11 854.85 1299.82 877.04 1315.91 899.7 1327.33 920.93L1328 921.31 1394.84 956.73 1404.93 887.51 1404.55 886.37C1397.88 871.51 1390.08 857.33 1381.51 843.52 1375.79 834.38 1369.7 826 1362.27 816.01 1358.94 811.44 1355.23 806.96 1351.33 802.3 1344.09 793.54 1336.57 784.49 1330.09 773.54 1315.34 748.6 1307.34 733.27 1298.67 708.8 1281.15 659.1 1264.21 616.25 1233.83 594.45H1233.74L1177.66 594.45 1142.53 594.74 1142.43 595.02C1136.72 617.21 1124.63 713.56 1137.96 810.77 1139.29 820.1 1141.77 837.52 1144.53 856.18 1147.95 878.65 1152.14 907.41 1155.48 931.02L1155.57 931.4 1204.32 988.15 1242.12 931.31Z" fill="#61ccff" opacity="1" stroke-width="4" stroke="#000000"></path><path d="M1364.27 940.07C1364.08 939.59 1344.76 894.46 1291.15 827.62 1267.83 798.49 1259.73 757.83 1253.92 728.03 1249.16 703.94 1245.74 686.61 1236.79 686.61H1234.98C1233.64 709.08 1224.12 753.55 1224.12 753.55L1224.03 754.31C1233.55 775.26 1244.21 795.06 1256.5 814.58 1264.3 826.95 1273.92 840.57 1284.11 854.95 1299.82 877.13 1315.91 899.7 1327.33 920.93L1327.81 921.31 1364.56 940.64 1364.27 940.07Z" fill="#61ccff00" opacity="0" stroke-width="4" stroke="#ffffff00"></path><path d="M1431.49 970.44L1431.68 969.77C1431.68 969.68 1431.68 969.58 1431.68 969.49 1425.49 941.4 1416.64 913.98 1405.02 887.7L1404.93 887.51 1396.17 891.32C1387.12 895.22 1381.41 904.17 1381.7 913.98L1382.17 929.02C1382.17 929.5 1381.7 929.69 1381.32 929.5L1365.99 917.69C1361.8 914.45 1356.66 912.74 1351.42 912.74 1348.18 912.74 1344.95 913.41 1341.9 914.74L1327.33 920.93 1327.52 921.21C1340.95 946.25 1345.04 964.44 1340 977.2 1336.57 985.96 1330.66 997.1 1326.76 1004.52 1325.9 1006.14 1325.14 1007.57 1324.57 1008.71 1323.14 1011.38 1322.1 1014.23 1321.52 1017.19L1321.91 1017.76 1431.21 970.72C1431.3 970.72 1431.4 970.53 1431.49 970.44Z" fill="#ffc930" opacity="1" stroke-width="4" stroke="#000000"></path><path d="M1229.17 1020.9L1233.93 1018.14C1234.03 1018.04 1234.12 1017.95 1234.12 1017.85 1239.64 989.38 1242.21 960.44 1242.02 931.5V931.31H1231.45C1222.5 931.31 1214.41 936.92 1211.37 945.4L1205.37 961.68C1205.27 962.06 1204.8 962.06 1204.61 961.77L1193.18 942.06C1189.37 935.5 1182.33 931.4 1174.71 931.4H1156.05C1155.67 931.4 1155.48 931.69 1155.48 932.07 1159.19 959.01 1156.24 978.63 1146.91 988.53 1140.72 995.1 1131.58 1002.43 1124.82 1007.76 1123.1 1009.19 1121.49 1010.43 1120.25 1011.38 1117.87 1013.28 1115.68 1015.47 1113.87 1017.95V1018.04L1114.92 1019.38 1227.36 1021.18H1227.46L1228.79 1020.9C1229.17 1020.9 1229.17 1020.9 1229.17 1020.9Z" fill="#ffc930" opacity="1" stroke-width="4" stroke="#000000"></path><path d="M1224.03 754.31C1229.46 712.7 1237.64 704.89 1233.83 665.86" stroke="#000000" stroke-width="4" stroke-linecap="round" stroke-linejoin="round" opacity="1" fill="none"></path><path d="M1268.49 636.44H1246.21" stroke="#000000" stroke-width="4" stroke-linecap="round" stroke-linejoin="round" opacity="1" fill="none"></path><path d="M1216.03 636.44H1175.47" stroke="#000000" stroke-width="4" stroke-linecap="round" stroke-linejoin="round" opacity="1" fill="none"></path><path d="M1163.38 421.83C1168.81 419.64 1174.8 416.41 1174.8 416.41" stroke="#000000" stroke-width="4" stroke-linecap="round" stroke-linejoin="round" opacity="1" fill="none"></path><path d="M1193.85 391.65L1189.09 396.41" stroke="#000000" stroke-width="4" stroke-linecap="round" stroke-linejoin="round" opacity="1" fill="none"></path><path d="M1148.72 384.7C1145.96 387.18 1142.34 388.32 1138.62 387.84" stroke="#000000" stroke-width="4" stroke-linecap="round" stroke-linejoin="round" opacity="1" fill="none"></path><path d="M1147.67 370.7C1146.36 370.7 1145.29 369.64 1145.29 368.32 1145.29 367.01 1146.36 365.94 1147.67 365.94 1148.98 365.94 1150.05 367.01 1150.05 368.32 1150.05 369.64 1148.98 370.7 1147.67 370.7Z" fill="#231f20" opacity="1" stroke-width="4" stroke="#000000"></path><path d="M1246.21 519.23L1233.83 594.45 1142.53 594.74" stroke="#000000" stroke-width="4" stroke-linecap="round" stroke-linejoin="round" opacity="1" fill="none"></path><path d="M1256.69 568.36L1238.88 563.6" stroke="#000000" stroke-width="4" stroke-linecap="round" stroke-linejoin="round" opacity="1" fill="none"></path><path d="M1131.2 542.18L1155.76 523.04" stroke="#000000" stroke-width="4" stroke-linecap="round" stroke-linejoin="round" opacity="1" fill="none"></path><path d="M1076.93 495.53L1072.93 521.14" stroke="#000000" stroke-width="4" stroke-linecap="round" stroke-linejoin="round" opacity="1" fill="none"></path><path d="M1340.47 952.73L1359.51 948.63" stroke="#000000" stroke-width="4" stroke-linecap="round" stroke-linejoin="round" opacity="1" fill="none"></path><path d="M1341.9 969.01L1359.7 970.91" stroke="#000000" stroke-width="4" stroke-linecap="round" stroke-linejoin="round" opacity="1" fill="none"></path><path d="M1156.52 966.15L1174.9 969.87" stroke="#000000" stroke-width="4" stroke-linecap="round" stroke-linejoin="round" opacity="1" fill="none"></path><path d="M1152.62 979.86L1168.43 990.53" stroke="#000000" stroke-width="4" stroke-linecap="round" stroke-linejoin="round" opacity="1" fill="none"></path><path d="M954.68 421.36C968.2 425.16 981.72 429.35 994.86 434.5" stroke="#000000" stroke-width="4" stroke-linecap="round" stroke-linejoin="round" opacity="1" fill="none"></path><path d="M948.58 431.35C964.77 435.16 987.24 445.92 987.24 445.92" stroke="#000000" stroke-width="4" stroke-linecap="round" stroke-linejoin="round" opacity="1" fill="none"></path><path d="M969.34 455.16L980.57 459.25" stroke="#000000" stroke-width="4" stroke-linecap="round" stroke-linejoin="round" opacity="1" fill="none"></path><path d="M1153.38 536.75C1154.05 535.23 1153.86 533.61 1152.91 532.28 1151.95 530.94 1150.43 530.09 1148.81 530.09 1147.76 530.09 1146.72 530.47 1145.86 531.13L1131.1 542.56 1137.96 574.55 1153.38 536.75Z" fill="#ffc93000" opacity="0" stroke-width="4" stroke="#ffffff00"></path><path d="M1434.63 986.81C1434.06 981.48 1432.06 971.58 1431.78 969.87 1431.78 969.77 1431.59 969.68 1431.49 969.77L1321.52 1017.19V1017.28C1320.19 1023.18 1320.76 1029.28 1323.24 1034.8L1323.33 1034.99 1434.63 986.81Z" fill="#ffffff" opacity="1" stroke-width="4" stroke="#000000"></path><path d="M1230.12 1034.8C1231.65 1029.75 1233.74 1019.76 1234.12 1018.23 1234.12 1018.14 1234.03 1018.04 1233.93 1018.04H1114.06 1113.96C1110.54 1022.9 1108.63 1028.8 1108.73 1034.7V1034.9L1230.12 1034.8Z" fill="#ffffff" opacity="1" stroke-width="4" stroke="#000000"></path><path d="M1382.17 930.16L1399.98 983.48" stroke="#000000" stroke-width="4" stroke-linecap="round" stroke-linejoin="round" opacity="1" fill="none"></path><path d="M1205.18 962.53L1199.46 1018.14" stroke="#000000" stroke-width="4" stroke-linecap="round" stroke-linejoin="round" opacity="1" fill="none"></path></g><g><path d="M709.1 761H894.4V1032H709.1L684.9 906.6 709.1 761Z" fill="#ffc930" opacity="1" stroke-width="4" stroke="#000000"></path><path d="M709.1 761H605V1032H709.1V761Z" fill="#ff4f32" opacity="1" stroke-width="4" stroke="#000000"></path><path d="M688.5 790.3H625.6V817H688.5V790.3Z" fill="#3c2c5b" opacity="1" stroke-width="4" stroke="#000000"></path><path d="M657.6 975.7C660.91 975.7 663.6 973.01 663.6 969.7 663.6 966.39 660.91 963.7 657.6 963.7 654.29 963.7 651.6 966.39 651.6 969.7 651.6 973.01 654.29 975.7 657.6 975.7Z" fill="#1f0e0c" opacity="1" stroke-width="4" stroke="#000000"></path><path d="M657.6 999.5C660.91 999.5 663.6 996.81 663.6 993.5 663.6 990.19 660.91 987.5 657.6 987.5 654.29 987.5 651.6 990.19 651.6 993.5 651.6 996.81 654.29 999.5 657.6 999.5Z" fill="#1f0e0c" opacity="1" stroke-width="4" stroke="#000000"></path><path d="M672.8 834.9V849.6" stroke="#000000" stroke-width="4" stroke-linecap="round" stroke-linejoin="round" opacity="1" fill="none"></path><path d="M657 834.9V849.6" stroke="#000000" stroke-width="4" stroke-linecap="round" stroke-linejoin="round" opacity="1" fill="none"></path><path d="M641.3 834.9V849.6" stroke="#000000" stroke-width="4" stroke-linecap="round" stroke-linejoin="round" opacity="1" fill="none"></path><path d="M796 953H863.5" stroke="#000000" stroke-width="4" stroke-linecap="round" stroke-linejoin="round" opacity="1" fill="none"></path><path d="M796 975H863.5" stroke="#000000" stroke-width="4" stroke-linecap="round" stroke-linejoin="round" opacity="1" fill="none"></path><path d="M796 997H863.5" stroke="#000000" stroke-width="4" stroke-linecap="round" stroke-linejoin="round" opacity="1" fill="none"></path><path d="M657.6 946.3C666.27 946.3 673.3 939.27 673.3 930.6 673.3 921.93 666.27 914.9 657.6 914.9 648.93 914.9 641.9 921.93 641.9 930.6 641.9 939.27 648.93 946.3 657.6 946.3Z" fill="#3c2c5b" opacity="1" stroke-width="4" stroke="#000000"></path></g><g><path d="M1409.18 848.68L1392.58 753.04 1488.22 769.64 1466.03 791.82 1506.14 831.93 1471.47 866.6 1431.36 826.49 1409.18 848.68Z" fill="#ff4f32" opacity="1" stroke-width="4" stroke="#000000"></path></g><g><path d="M446.64 1028.58C444.01 1023.58 441.47 1018.83 439.09 1013.92 435.7 1006.71 433.24 1001.2 431.12 996.2L431.04 996.03H431.12C434.43 994.84 443.59 991.96 456.39 991.96 460.88 991.96 465.29 992.3 469.53 993.06H469.62L474.87 1015.27 446.89 1029.18 446.64 1028.58Z" fill="#525252" opacity="1" stroke-width="4" stroke="#000000"></path><path d="M239.93 556.41C238.4 548.19 236.37 537.59 234.84 529.03 233.57 522.24 232.47 506.81 231.96 503.84 231.96 503.84 284.19 456.11 290.12 458.48 298.18 461.62 303.69 466.2 307.67 472.47 311.4 478.41 313.78 485.87 316.83 494.94L317.59 497.23C318.53 497.32 325.14 498.25 325.82 501.13 326.58 504.18 322.6 509.44 322 510.12 327.26 526.65 327.17 535.64 321.58 543.35 318.19 548.1 311.15 550.99 302.84 550.99 299.28 550.99 295.97 550.48 293.35 549.46L295.55 563.02 239.93 556.41Z" fill="#f2a087" opacity="1" stroke-width="4" stroke="#000000"></path><path d="M290.12 562.94L281.39 543.78C288.09 547.51 293.35 549.46 293.35 549.46L294.87 558.7 290.12 562.94Z" fill="#f2a08700" opacity="0" stroke-width="4" stroke="#ffffff00"></path><path d="M316.66 520.46C314.46 521.23 309.96 520.72 308.52 517.83" stroke="#000000" stroke-width="4" stroke-linecap="round" stroke-linejoin="round" opacity="1" fill="none"></path><path d="M307.42 502.32C308.73 502.32 309.79 501.26 309.79 499.94 309.79 498.63 308.73 497.57 307.42 497.57 306.11 497.57 305.05 498.63 305.05 499.94 305.05 501.26 306.11 502.32 307.42 502.32Z" fill="#010005" opacity="1" stroke-width="4" stroke="#000000"></path><path d="M275.71 520.46L268.25 515.97" stroke="#000000" stroke-width="4" stroke-linecap="round" stroke-linejoin="round" opacity="1" fill="none"></path><path d="M210.34 487.23C226.21 487.23 239.08 474.36 239.08 458.48 239.08 442.61 226.21 429.74 210.34 429.74 194.47 429.74 181.6 442.61 181.6 458.48 181.6 474.36 194.47 487.23 210.34 487.23Z" fill="#010005" opacity="1" stroke-width="4" stroke="#000000"></path><path d="M303.86 970.17L301.48 964.91V964.83C302.5 955.5 304.03 945.92 305.89 936.34L310.13 923.62 394.75 924.98 392.63 936.51C390.26 944.56 388.56 950.58 388.14 955.41L365.92 999.59 303.86 970.17Z" fill="#f2a087" opacity="1" stroke-width="4" stroke="#000000"></path><path d="M298.77 1029.09V1028.92C298.6 1023.16 298.6 1017.48 298.6 1011.97 298.6 1005.27 298.86 998.74 299.11 992.47V992.3H299.28C311.83 994.16 323.53 999.5 333.11 1007.9L333.19 1007.98 330.57 1029.09H298.77Z" fill="#525252" opacity="1" stroke-width="4" stroke="#000000"></path><path d="M341.67 1017.56C330.23 1003.49 315.98 995.18 299.28 992.72H299.11V992.13C299.28 989.67 299.36 987.21 299.53 984.92 299.96 978.56 301.23 966.69 301.4 964.91 301.4 964.83 301.48 964.74 301.65 964.74 333.7 966.27 354.82 983.56 359.22 987.46 359.39 987.63 359.65 987.46 359.56 987.29L356.6 968.73C356.09 965.67 356.77 962.54 358.63 960.08 360.41 957.53 363.12 955.84 366.18 955.33 366.77 955.24 367.45 955.16 368.13 955.16H388.22C388.39 955.16 388.48 955.24 388.48 955.41 388.39 956.6 387.88 961.6 387.88 962.96 387.97 983.39 397.04 991.7 405.86 999.67 410.1 1003.49 414.08 1007.13 416.96 1011.97 417.98 1013.66 418.74 1015.44 419.42 1017.31L419.51 1017.56H341.67Z" fill="#cecece" opacity="1" stroke-width="4" stroke="#000000"></path><path d="M305.81 936.51V936.34C312.59 900.64 324.29 866.05 340.66 833.58L345.91 823.32C309.12 823.23 277.57 812.3 263.42 794.66 256.12 785.5 253.67 775.16 256.21 763.88 262.14 738.19 271.72 721.66 271.81 721.57L272.06 721.07 272.32 724.88C276.9 725.39 384.41 738.45 417.64 777.87 439.94 804.33 419.59 860.62 403.31 905.81 399.33 916.92 395.51 927.43 392.71 936.51H305.81Z" fill="#ffc930" opacity="1" stroke-width="4" stroke="#000000"></path><path d="M395.6 926.59C395.43 926.16 382.79 880.63 328.7 860.28L328.53 860.2 328.62 860.03C332.43 850.79 336.5 841.89 340.74 833.49 342.44 830.19 343.45 828.07 343.96 827.13 343.88 827.05 343.88 827.05 344.73 825.35V825.27L426.97 800.76V800.93C430.61 830.27 415.52 872.15 403.4 905.73 400.68 913.11 398.23 920.06 396.02 926.59L395.85 927.1 395.6 926.59Z" fill="#ffc93000" opacity="0" stroke-width="4" stroke="#ffffff00"></path><path d="M392.71 984.5L379.15 990.09" stroke="#000000" stroke-width="4" stroke-linecap="round" stroke-linejoin="round" opacity="1" fill="none"></path><path d="M400.43 994.92L388.98 1003.57" stroke="#000000" stroke-width="4" stroke-linecap="round" stroke-linejoin="round" opacity="1" fill="none"></path><path d="M391.95 936.59L305.98 936.42" stroke="#000000" stroke-width="4" stroke-linecap="round" stroke-linejoin="round" opacity="1" fill="none"></path><path d="M421.46 971.35C417.9 961.52 414.67 951.09 412.13 941.85L411.96 934.64 487.08 897.59 490.73 904.54C492.93 916.07 494.2 922.69 495.22 924.98L490.47 975.42 425.78 972.88 421.46 971.35Z" fill="#f2a087" opacity="1" stroke-width="4" stroke="#000000"></path><path d="M483.94 997.21C475.38 993.99 466.14 992.3 456.47 992.3 443.76 992.3 434.68 995.18 431.38 996.37L431.21 996.45 431.12 996.28C430.02 993.99 423.24 976.95 421.2 971.52L421.12 971.18 421.46 971.1C433.92 965.42 447.32 962.54 461.22 962.54 474.11 962.54 486.11 966.08 485.55 965.76L475.63 951.43C471.4 945.32 472.92 936.93 479.03 932.69 479.62 932.27 495.31 924.72 495.31 924.72 495.31 924.72 497.17 928.88 497.76 929.98 507.01 948.21 518.79 951.6 530.24 954.82 535.75 956.35 540.92 957.87 545.67 960.93 547.19 961.94 548.64 963.13 549.91 964.32L549.82 964.66 483.94 997.21Z" fill="#cecece" opacity="1" stroke-width="4" stroke="#000000"></path><path d="M412.38 942.7C405.94 918.45 401.7 899.03 399.58 881.06 397.63 864.69 397.29 850.53 397.38 832.98L274.1 833.32C257.74 833.32 239.59 830.44 227.38 818.57 218.65 810.09 214.75 798.31 213.22 786.52 211.95 776.77 211.95 766.77 214.41 757.35 217.12 747.1 217.21 738.53 221.45 730.65L229.16 718.69H317.51L321.32 721.49C322.68 721.74 346.85 726.15 374.99 733.78 423.07 746.84 441.97 758.37 449.35 765.75 469.19 786.18 473.94 813.06 480.55 850.19 481.65 856.3 482.76 862.66 484.03 869.27L484.88 873.85C487 885.13 488.95 895.89 490.73 904.88L412.38 942.7Z" fill="#ffc930" opacity="1" stroke-width="4" stroke="#000000"></path><path d="M403.4 904.8C397.97 876.56 397.46 857.32 397.55 833.58" stroke="#000000" stroke-width="4" stroke-linecap="round" stroke-linejoin="round" opacity="1" fill="none"></path><path d="M512.52 947.7L503.28 958.98" stroke="#000000" stroke-width="4" stroke-linecap="round" stroke-linejoin="round" opacity="1" fill="none"></path><path d="M523.28 953.29L517.26 966.27" stroke="#000000" stroke-width="4" stroke-linecap="round" stroke-linejoin="round" opacity="1" fill="none"></path><path d="M490.3 904.8L413.74 942.19" stroke="#000000" stroke-width="4" stroke-linecap="round" stroke-linejoin="round" opacity="1" fill="none"></path><path d="M403.23 595.07L403.4 591.77C416.71 577.69 431.72 562.09 442.65 554.46 459.19 542.93 488.69 531.74 498.53 531.74 501.66 531.74 503.19 532.67 503.28 534.54 503.36 539.71 496.07 544.2 485.89 550.39 484.88 550.99 483.77 551.66 482.67 552.34 483.94 552.6 485.22 553.78 485.98 555.39 487.17 558.02 486.74 561.07 484.71 563.53 486.83 564.21 488.27 565.48 488.95 567.35 489.71 569.64 489.2 572.35 487.59 574.73 489.12 576.08 489.96 577.95 490.05 580.15 490.13 583.46 488.44 586.68 486.66 588.29 483.94 591 481.32 593.21 476.82 593.21 475.72 593.21 474.53 593.04 473.18 592.78 467.92 599.4 461.31 603.89 454.52 605.33 453.68 606.69 452.4 609.49 450.54 613.39 449.1 616.36 447.4 620.09 445.37 624.16L443.67 625.34 403.23 595.07Z" fill="#f2a087" opacity="1" stroke-width="4" stroke="#000000"></path><path d="M215.51 752.01C169.39 735.48 168.37 701.99 172.69 674.69 175.07 659.34 181 639.08 188.89 619.15 196.18 600.75 203.98 585.66 209.24 579.9 221.02 566.92 239.42 563.7 241.37 563.45 241.2 562.6 241.03 561.75 240.86 560.82 240.61 559.38 240.27 557.77 239.93 556.07V555.9H294.53L295.8 563.36H297.92C320.14 563.36 339.81 574.22 358.12 596.52L378.56 619.83C379.83 618.31 390.51 605.5 403.4 591.6L403.48 591.51 445.37 624.16C426.88 660.44 408.4 681.56 390.51 686.64 387.46 687.49 384.24 687.91 380.93 687.91 356.17 687.91 331.07 664 328.36 661.38L321.24 721.4H229.25C220.94 733.95 215.77 751.59 215.77 751.84L215.68 752.01H215.51Z" fill="#61ccff" opacity="1" stroke-width="4" stroke="#000000"></path><path d="M229.25 721.4L218.99 683 218.82 683.08C213.65 685.79 212.37 693.51 210.85 702.41 208.73 715.3 206.02 731.32 189.74 737.51H189.65C196.1 743.11 204.49 748.03 215.51 752.01H215.68L215.77 751.84C215.77 751.59 220.94 733.95 229.25 721.4Z" fill="#61ccff00" opacity="0" stroke-width="4" stroke="#ffffff00"></path><path d="M290.8 721.4L317.76 651.46 328.36 661.38 321.24 721.4H290.8Z" fill="#61ccff00" opacity="0" stroke-width="4" stroke="#ffffff00"></path><path d="M229.16 721.32L213.9 664.51" stroke="#000000" stroke-width="4" stroke-linecap="round" stroke-linejoin="round" opacity="1" fill="none"></path><path d="M208.73 702.92L221.53 696.73" stroke="#000000" stroke-width="4" stroke-linecap="round" stroke-linejoin="round" opacity="1" fill="none"></path><path d="M328.28 661.12L314.12 646.88" stroke="#000000" stroke-width="4" stroke-linecap="round" stroke-linejoin="round" opacity="1" fill="none"></path><path d="M378.39 620.42L377.54 631.45" stroke="#000000" stroke-width="4" stroke-linecap="round" stroke-linejoin="round" opacity="1" fill="none"></path><path d="M483.27 551.92C477.33 551.92 467.24 553.95 463.43 556.24" stroke="#000000" stroke-width="4" stroke-linecap="round" stroke-linejoin="round" opacity="1" fill="none"></path><path d="M484.37 563.7C478.43 562.94 466.48 568.2 466.48 568.2" stroke="#000000" stroke-width="4" stroke-linecap="round" stroke-linejoin="round" opacity="1" fill="none"></path><path d="M487.34 574.81C483.52 574.05 475.38 575.57 470.12 579.3" stroke="#000000" stroke-width="4" stroke-linecap="round" stroke-linejoin="round" opacity="1" fill="none"></path><path d="M473.68 592.19L477.16 586.51" stroke="#000000" stroke-width="4" stroke-linecap="round" stroke-linejoin="round" opacity="1" fill="none"></path><path d="M292.84 549.29C289.02 547.85 286.14 546.41 286.14 546.41" stroke="#000000" stroke-width="4" stroke-linecap="round" stroke-linejoin="round" opacity="1" fill="none"></path><path d="M144.63 625.85C141.83 613.22 148.36 601.01 162.18 593.21 155.23 574.47 156.75 556.41 166.59 542.17 176.76 527.5 194.15 519.02 214.41 519.02 220.68 519.02 227.04 519.87 233.49 521.48 233.23 520.04 232.98 518.68 232.72 517.49 232.38 515.8 232.13 514.36 231.96 513.34L231.79 512.24C229.5 500.11 225.26 477.48 238.32 465.78 246.71 458.31 258.75 454.07 271.39 454.07 278.08 454.07 284.78 455.26 290.72 457.64 299.03 460.86 304.62 466.11 308.86 474.34 308.86 474.34 303.6 481.38 293.94 481.38 291.82 481.38 289.53 481.04 289.86 481.21 292.07 489.01 288.82 501.86 284.84 507.43L283.61 509 283.19 509.57C282.4 509.02 273.08 502.32 264.6 502.32 259.69 502.32 256.21 504.61 254.26 509.19 248.24 523.34 271.81 535.64 272.06 535.81H272.15V535.89C273.67 541.83 274.78 568.62 260.96 586.43 252.9 596.77 241.37 602.03 226.62 602.03 218.39 602.03 209.15 600.33 199.06 597.11 198.13 598.89 188.38 618.39 178.54 650.78 178.54 650.78 150.23 651.63 144.63 625.85Z" fill="#010005" opacity="1" stroke-width="4" stroke="#000000"></path><path d="M340.83 833.32L417.56 832.64" stroke="#000000" stroke-width="4" stroke-linecap="round" stroke-linejoin="round" opacity="1" fill="none"></path><path d="M270.71 546.66C275.39 546.66 279.19 542.86 279.19 538.18 279.19 533.5 275.39 529.7 270.71 529.7 266.03 529.7 262.23 533.5 262.23 538.18 262.23 542.86 266.03 546.66 270.71 546.66Z" fill="#ffffff" opacity="1" stroke-width="4" stroke="#000000"></path><path d="M233.49 521.48C237.13 522.75 240.95 524.53 244.42 526.31" stroke="#000000" stroke-width="4" stroke-linecap="round" stroke-linejoin="round" opacity="1" fill="none"></path><path d="M162.18 593.21C164.05 597.62 166.42 601.94 168.96 606.01" stroke="#000000" stroke-width="4" stroke-linecap="round" stroke-linejoin="round" opacity="1" fill="none"></path><path d="M198.89 597.11C191.01 594.99 186.77 591.6 186.77 591.6" stroke="#000000" stroke-width="4" stroke-linecap="round" stroke-linejoin="round" opacity="1" fill="none"></path><path d="M403.57 591.77L445.28 624.24" stroke="#000000" stroke-width="4" stroke-linecap="round" stroke-linejoin="round" opacity="1" fill="none"></path><path d="M497.34 1004C493.1 1001.2 488.61 998.91 483.86 997.21L483.52 997.04 549.57 964.06 549.65 964.15C552.71 967.03 555.16 970.34 556.94 974.15L557.03 974.32 497.34 1004Z" fill="#525252" opacity="1" stroke-width="4" stroke="#000000"></path><path d="M349.9 1029.09C347.35 1024.94 344.47 1020.95 341.42 1017.31L341.25 1017.05H419.34L419.42 1017.14C420.78 1020.95 421.2 1024.94 421.2 1028.92V1029.09H349.9Z" fill="#525252" opacity="1" stroke-width="4" stroke="#000000"></path></g><g><path d="M252.65 855.22C258 855.22 262.4 859.55 262.4 864.9L262.33 890.23V995.03C262.33 1000.38 258 1004.71 252.65 1004.71 247.3 1004.71 242.97 1000.38 242.97 995.03V864.9C242.89 859.55 247.22 855.22 252.65 855.22Z" fill="#ffffff" opacity="1" stroke-width="4" stroke="#000000"></path><path d="M252.65 855.22C247.22 855.22 242.89 859.55 242.97 864.9V899.04L262.33 890.23 262.4 864.9C262.33 859.55 258 855.22 252.65 855.22Z" fill="#ffffff00" opacity="0" stroke-width="4" stroke="#ffffff00"></path><path d="M320.55 1017.69C319.21 1016.51 253.2 958.84 253.2 958.84H252.02C252.02 958.84 186.01 1016.51 184.67 1017.69 183.02 1018.63 181.21 1023.27 183.81 1026.26 185.85 1028.78 189.47 1029.41 192.23 1027.6 192.38 1027.52 228.5 1002.74 250.13 987.87 251.63 986.85 253.51 986.85 255.01 987.87 276.64 1002.74 312.84 1027.52 312.91 1027.6 315.75 1029.41 319.44 1028.7 321.33 1026.26 324.01 1023.19 322.2 1018.63 320.55 1017.69Z" fill="#ff4f32" opacity="1" stroke-width="4" stroke="#000000"></path><path d="M236.91 955.06H268.3C270.19 955.06 271.69 956.56 271.69 958.44V975.28H233.45V958.44C233.53 956.56 235.03 955.06 236.91 955.06Z" fill="#3c2c5b" opacity="1" stroke-width="4" stroke="#000000"></path><path d="M233.53 849.09H271.77V875.28C271.77 876.62 270.67 877.8 269.25 877.8H235.97C234.63 877.8 233.53 876.7 233.53 875.28V849.09Z" fill="#3c2c5b" opacity="1" stroke-width="4" stroke="#000000"></path><path d="M196.08 833.51H309.14C316.69 833.51 322.75 839.64 322.75 847.12 322.75 854.67 316.61 860.73 309.14 860.73H196.08C188.53 860.73 182.47 854.59 182.47 847.12 182.47 839.64 188.61 833.51 196.08 833.51Z" fill="#ff4f32" opacity="1" stroke-width="4" stroke="#000000"></path></g></svg>